SplineFontDB: 3.0
FontName: Ulica
FullName: Ulica
FamilyName: Ulica
Weight: Regular
Copyright: 
Version: 
ItalicAngle: 0
UnderlinePosition: 0
UnderlineWidth: 0
Ascent: 800
Descent: 205
LayerCount: 2
Layer: 0 0 "Back"  1
Layer: 1 0 "Fore"  0
XUID: [1021 169 1083699182 1716466]
FSType: 8
OS2Version: 0
OS2_WeightWidthSlopeOnly: 0
OS2_UseTypoMetrics: 0
CreationTime: 1400338344
ModificationTime: 1401055759
PfmFamily: 17
TTFWeight: 400
TTFWidth: 5
LineGap: 92
VLineGap: 92
OS2TypoAscent: 0
OS2TypoAOffset: 1
OS2TypoDescent: 0
OS2TypoDOffset: 1
OS2TypoLinegap: 92
OS2WinAscent: 0
OS2WinAOffset: 1
OS2WinDescent: 0
OS2WinDOffset: 1
HheadAscent: 0
HheadAOffset: 1
HheadDescent: 0
HheadDOffset: 1
OS2Vendor: 'PfEd'
Lookup: 1 0 0 "Polish letters"  {"Polish letters"  } ['locl' ('DFLT' <'dflt' > 'latn' <'PLK ' > ) ]
Lookup: 260 0 0 "'mark' Mark Positioning in Latin lookup 0"  {"'mark' Mark Positioning in Latin lookup 0-1"  } ['mark' ('DFLT' <'dflt' > 'latn' <'dflt' > ) ]
MarkAttachClasses: 2
"top" 0 
DEI: 91125

StartChar: uni0000
Encoding: 256 0 0
Width: 1024
VWidth: 1024
Flags: H
LayerCount: 2
Fore
SplineSet
0 0 m 1
 0 1024 l 1
 1000 1024 l 1
 1000 0 l 1
 0 0 l 1
EndSplineSet
Validated: 1
EndChar

StartChar: A
Encoding: 257 65 1
Width: 360
VWidth: 799
Flags: HW
LayerCount: 2
Fore
SplineSet
114 622 m 1
 246 622 l 1
 335 0 l 1
 246 0 l 1
 234 89 l 1
 126 89 l 1
 114 0 l 1
 25 0 l 1
 114 622 l 1
180 467 m 1
 139 178 l 1
 221 178 l 1
 180 467 l 1
EndSplineSet
Validated: 1
EndChar

StartChar: B
Encoding: 258 66 2
Width: 360
VWidth: 799
Flags: HW
HStem: 0 88.8633<202.106 236.443> 266.601 88.864<202.106 233.824> 533.191 88.875<202.106 233.824>
VStem: 246.382 88.553<100.506 133.301 222.164 253.997 367.103 399.891 488.765 520.59>
LayerCount: 2
Fore
SplineSet
335 533 m 2
 335 576.885 290.373 622 246 622 c 0
 172.333 622 98.6667 622 25 622 c 1
 25 0 l 1
 98.6667 -0 172.333 0 246 0 c 0
 290.385 0 335 45.1134 335 89 c 2
 335 267 l 2
 335 282 330 296 321 311 c 1
 330 325 335 340 335 355 c 2
 335 533 l 2
246 400 m 2
 246 368.415 233.7 355 202 355 c 2
 114 355 l 1
 114 533 l 1
 202 533 l 2
 228.396 533 246 515.4 246 489 c 2
 246 400 l 2
246 133 m 2
 246 102.405 234.146 89 202 89 c 2
 114 89 l 1
 114 267 l 1
 202 267 l 2
 227.879 267 246 248.335 246 222 c 2
 246 133 l 2
EndSplineSet
Validated: 9
EndChar

StartChar: C
Encoding: 259 67 3
Width: 360
VWidth: 799
Flags: HW
HStem: -0.5 88.863<116.68 157.83 202.105 243.255> 532.691 88.875<118.471 157.83 202.105 241.464>
VStem: 25 88.5531<91.552 132.801 488.265 527.756> 246.382 88.553<91.552 132.801 488.265 527.756>
LayerCount: 2
Fore
SplineSet
25 533 m 2
 25 576.021 69.6274 622 114 622 c 0
 158 622 202 622 246 622 c 0
 290.385 622 335 576.015 335 533 c 2
 335 444 l 1
 246 444 l 1
 246 488 l 2
 246 514.829 227.881 533 202 533 c 2
 158 533 l 2
 132.121 533 114 514.816 114 488 c 2
 114 133 l 2
 114 101.415 126.3 88 158 88 c 2
 202 88 l 2
 233.704 88 246 101.418 246 133 c 2
 246 177 l 1
 335 177 l 1
 335 88 l 2
 335 44.6477 290.917 0 246 -0 c 0
 202 -0 158 0 114 -0 c 0
 69.0737 0 25 44.6473 25 88 c 2
 25 533 l 2
EndSplineSet
Validated: 1
EndChar

StartChar: D
Encoding: 260 68 4
Width: 360
VWidth: 799
Flags: HW
HStem: 0 88.8633<202.105 236.443> 533.191 88.875<202.105 233.824>
VStem: 246.382 88.553<100.506 133.301 488.765 520.59>
LayerCount: 2
Fore
SplineSet
335 533 m 2
 335 577 290 622 246 622 c 2
 25 622 l 1
 25 0 l 1
 246 0 l 2
 290 0 335 45 335 89 c 2
 335 533 l 2
246 133 m 2
 246 102 234 89 202 89 c 2
 114 89 l 1
 114 533 l 1
 202 533 l 2
 228 533 246 515 246 489 c 2
 246 133 l 2
EndSplineSet
Validated: 9
EndChar

StartChar: E
Encoding: 261 69 5
Width: 360
VWidth: 799
Flags: HW
VStem: 25 309.935
LayerCount: 2
Fore
SplineSet
25 622 m 1
 128.333 622 231.667 622 335 622 c 1
 335 533 l 1
 114 533 l 1
 114 355 l 1
 335 355 l 1
 335 267 l 1
 114 267 l 1
 114 89 l 1
 335 89 l 1
 335 0 l 1
 231.667 -0 128.333 0 25 0 c 1
 25 622 l 1
EndSplineSet
Validated: 1
EndChar

StartChar: F
Encoding: 262 70 6
Width: 360
VWidth: 799
Flags: HW
VStem: 25 309.935
LayerCount: 2
Fore
SplineSet
25 622 m 1
 128.333 622 231.667 622 335 622 c 1
 335 533 l 1
 114 533 l 1
 114 355 l 1
 335 355 l 1
 335 267 l 1
 114 267 l 1
 114 0 l 1
 25 0 l 1
 25 207.333 25 414.667 25 622 c 1
EndSplineSet
Validated: 1
EndChar

StartChar: G
Encoding: 263 71 7
Width: 360
VWidth: 799
Flags: HW
HStem: 0 88.8633<123.493 157.829 202.105 236.443> 533.191 88.875<126.111 157.829 202.105 233.823>
VStem: 25 88.552<100.506 133.301 488.765 520.589> 246.382 88.553<100.506 133.301 488.765 520.59>
LayerCount: 2
Fore
SplineSet
25 533 m 2
 25 576.885 69.6274 622 114 622 c 0
 158 622 202 622 246 622 c 0
 290.385 622 335 576.887 335 533 c 2
 335 444 l 1
 246 444 l 1
 246 489 l 2
 246 515.396 228.4 533 202 533 c 2
 158 533 l 2
 131.604 533 114 515.4 114 489 c 2
 114 133 l 2
 114 102.405 125.854 89 158 89 c 2
 202 89 l 2
 234.15 89 246 102.394 246 133 c 0
 246 162.667 246 192.333 246 222 c 1
 158 222 l 1
 158 311 l 1
 335 311 l 1
 335 237 335 163 335 89 c 0
 335 45.1151 290.373 0 246 0 c 0
 202 -0 158 0 114 0 c 0
 69.6151 0 25 45.1134 25 89 c 2
 25 533 l 2
EndSplineSet
Validated: 1
EndChar

StartChar: H
Encoding: 264 72 8
Width: 360
VWidth: 799
Flags: HW
LayerCount: 2
Fore
SplineSet
25 622 m 1
 114 622 l 1
 114 355 l 1
 246 355 l 1
 246 622 l 1
 335 622 l 1
 335 0 l 1
 246 0 l 1
 246 267 l 1
 114 267 l 1
 114 0 l 1
 25 0 l 1
 25 622 l 1
EndSplineSet
Validated: 1
EndChar

StartChar: I
Encoding: 265 73 9
Width: 138
VWidth: 799
Flags: W
HStem: 0 21G<25 113.553> 602.066 20G<25 113.553>
VStem: 25 88.553<0 622.066>
LayerCount: 2
Fore
SplineSet
25 0 m 1
 25 622.066 l 1
 113.553 622.066 l 1
 113.553 0 l 1
 25 0 l 1
EndSplineSet
Validated: 1
EndChar

StartChar: J
Encoding: 266 74 10
Width: 360
VWidth: 799
Flags: HW
HStem: 0 88.8633<123.493 157.829 202.106 236.443>
VStem: 25 88.553<100.506 133.301> 246.382 88.553<100.506 133.301>
LayerCount: 2
Fore
SplineSet
202 89 m 2
 234.15 89 246 102.394 246 133 c 2
 246 533 l 1
 25 533 l 1
 25 622 l 1
 335 622 l 1
 335 89 l 2
 335 45.1151 290.373 0 246 0 c 0
 202 -0 158 0 114 0 c 0
 69.6151 0 25 45.1134 25 89 c 2
 25 178 l 1
 114 178 l 1
 114 133 l 2
 114 102.405 125.854 89 158 89 c 2
 202 89 l 2
EndSplineSet
Validated: 1
EndChar

StartChar: K
Encoding: 267 75 11
Width: 360
VWidth: 799
Flags: HW
LayerCount: 2
Fore
SplineSet
25 622 m 1
 114 622 l 1
 114 355 l 1
 158 355 l 1
 246 622 l 1
 335 622 l 1
 222 311 l 1
 335 0 l 1
 246 0 l 1
 158 267 l 1
 114 267 l 1
 114 0 l 1
 25 0 l 1
 25 622 l 1
EndSplineSet
Validated: 1
EndChar

StartChar: L
Encoding: 268 76 12
Width: 360
VWidth: 799
Flags: HW
VStem: 25 309.935
LayerCount: 2
Fore
SplineSet
25 622 m 1
 114 622 l 1
 114 89 l 1
 335 89 l 1
 335 0 l 1
 231.667 -0 128.333 0 25 0 c 1
 25 207.333 25 414.667 25 622 c 1
EndSplineSet
Validated: 1
EndChar

StartChar: M
Encoding: 269 77 13
Width: 448
VWidth: 799
Flags: HW
HStem: 424.328 20G<113.553 123.518 324.97 334.935>
LayerCount: 2
Fore
SplineSet
25 622 m 1
 114 622 l 1
 224 400 l 1
 335 622 l 1
 423 622 l 1
 423 0 l 1
 335 0 l 1
 335 444 l 1
 298.025 369.975 260.328 296.672 224 222 c 1
 187.734 296.401 150.651 369.984 114 444 c 1
 114 0 l 1
 25 0 l 1
 25 622 l 1
EndSplineSet
Validated: 1
EndChar

StartChar: N
Encoding: 270 78 14
Width: 360
VWidth: 799
Flags: HW
LayerCount: 2
Fore
SplineSet
25 622 m 1
 114 622 l 1
 246 311 l 1
 246 622 l 1
 335 622 l 1
 335 0 l 1
 246 0 l 1
 114 311 l 1
 114 0 l 1
 25 0 l 1
 25 622 l 1
EndSplineSet
Validated: 1
EndChar

StartChar: O
Encoding: 271 79 15
Width: 360
VWidth: 799
Flags: HW
HStem: 0 88.8633<123.493 157.829 202.105 236.443> 533.191 88.875<126.111 157.829 202.105 233.823>
VStem: 25 88.553<100.506 133.301 488.765 520.589> 246.382 88.553<100.506 133.301 488.765 520.59>
LayerCount: 2
Fore
SplineSet
335 533 m 2
 335 576.885 290.373 622 246 622 c 0
 202 622 158 622 114 622 c 0
 69.6151 622 25 576.887 25 533 c 2
 25 89 l 2
 25 45.1151 69.6274 0 114 0 c 0
 158 -0 202 0 246 0 c 0
 290.385 0 335 45.1134 335 89 c 2
 335 533 l 2
114 489 m 2
 114 515.396 131.6 533 158 533 c 2
 202 533 l 2
 228.396 533 246 515.4 246 489 c 2
 246 133 l 2
 246 102.405 234.146 89 202 89 c 2
 158 89 l 2
 125.85 89 114 102.394 114 133 c 2
 114 489 l 2
EndSplineSet
Validated: 9
EndChar

StartChar: P
Encoding: 272 80 16
Width: 360
VWidth: 799
Flags: HW
HStem: 266.59 88.864<202.106 236.443> 533.191 88.864<202.106 233.824>
VStem: 246.382 88.553<367.096 399.891 488.754 520.588>
LayerCount: 2
Fore
SplineSet
335 533 m 2
 335 576.885 290.373 622 246 622 c 0
 172.333 622 98.6667 622 25 622 c 1
 25 414.667 25 207.333 25 0 c 1
 114 0 l 1
 114 267 l 1
 158 267 202 267 246 267 c 0
 290.926 267 335 311.647 335 355 c 2
 335 533 l 2
246 400 m 2
 246 368.415 233.7 355 202 355 c 2
 114 355 l 1
 114 533 l 1
 202 533 l 2
 228.396 533 246 515.4 246 489 c 2
 246 400 l 2
EndSplineSet
Validated: 9
EndChar

StartChar: Q
Encoding: 273 81 17
Width: 404
VWidth: 799
Flags: HW
HStem: -1.13672 88.8633<123.493 157.829 202.106 231.715> 532.055 88.874<126.111 157.829 202.106 233.824>
VStem: 25 88.553<99.3699 132.164 487.629 519.453> 246.382 88.553<99.3699 132.164 487.629 519.453>
LayerCount: 2
Fore
SplineSet
25 532 m 2
 25 575.885 69.6274 621 114 621 c 0
 158 621 202 621 246 621 c 0
 290.385 621 335 575.887 335 532 c 2
 335 88 l 2
 335 64 325 43 304 24 c 1
 379 -90 l 1
 291 -90 l 1
 232 -1 l 1
 192.667 -1 153.333 -1 114 -1 c 0
 69.6151 -1 25 44.1134 25 88 c 2
 25 532 l 2
246 488 m 2
 246 514.396 228.4 532 202 532 c 2
 158 532 l 2
 131.604 532 114 514.4 114 488 c 2
 114 132 l 2
 114 101.118 125.854 88 158 88 c 2
 202 88 l 2
 234.15 88 246 101.104 246 132 c 2
 246 488 l 2
EndSplineSet
Validated: 1
EndChar

StartChar: R
Encoding: 274 82 18
Width: 360
VWidth: 799
Flags: HW
HStem: 533.191 88.875<202.106 240.957>
VStem: 246.382 88.553<358.785 399.891 488.765 527.733>
LayerCount: 2
Fore
SplineSet
246 622 m 2
 25 622 l 1
 25 0 l 1
 114 0 l 1
 114 267 l 1
 158 267 l 1
 246 0 l 1
 335 0 l 1
 246 267 l 1
 290 267 335 312 335 355 c 2
 335 533 l 2
 335 577 290 622 246 622 c 2
246 400 m 2
 246 369 234 355 202 355 c 2
 114 355 l 1
 114 533 l 1
 202 533 l 2
 229 533 246 515 246 489 c 2
 246 400 l 2
EndSplineSet
Validated: 9
EndChar

StartChar: S
Encoding: 275 83 19
Width: 359
VWidth: 799
Flags: HW
HStem: 0 88.8672<123.224 157.469 201.625 235.86> 266.601 88.867<119.161 148.638 207.972 241.128> 533.202 88.8669<125.836 157.469 201.625 233.257>
VStem: 25 88.312<100.507 133.301 365.778 399.901 488.769 520.599> 245.781 88.312<100.504 133.301 222.168 262.859 488.769 520.598>
LayerCount: 2
Fore
SplineSet
25 533 m 2
 25 576.341 69.6081 622 113 622 c 0
 157.333 622 201.667 622 246 622 c 0
 289.397 622 334 576.34 334 533 c 2
 334 444 l 1
 246 444 l 1
 246 489 l 2
 246 515.396 228.4 533 202 533 c 2
 157 533 l 2
 131.193 533 113 515.4 113 489 c 0
 113 459.333 113 429.667 113 400 c 0
 113 367.806 116.265 355 149 355 c 0
 175.333 355 201.667 355 228 355 c 0
 271.895 355 334 309.768 334 267 c 2
 334 89 l 2
 334 45.6585 289.392 0 246 0 c 0
 201.667 -0 157.333 0 113 0 c 0
 69.6033 0 25 45.6598 25 89 c 0
 25 118.667 25 148.333 25 178 c 1
 113 178 l 1
 113 133 l 2
 113 103.448 125.678 89 157 89 c 2
 202 89 l 2
 233.594 89 246 103.439 246 133 c 0
 246 162.667 246 192.333 246 222 c 0
 246 250 233 265 208 267 c 1
 176.333 267 144.667 267 113 267 c 0
 69.0588 267 25 312.194 25 355 c 2
 25 533 l 2
EndSplineSet
Validated: 1
EndChar

StartChar: T
Encoding: 276 84 20
Width: 360
VWidth: 799
Flags: HW
VStem: 25 309.935
LayerCount: 2
Fore
SplineSet
25 622 m 1
 335 622 l 1
 335 533 l 1
 224 533 l 1
 224 0 l 1
 136 0 l 1
 136 533 l 1
 25 533 l 1
 25 622 l 1
EndSplineSet
Validated: 1
EndChar

StartChar: U
Encoding: 277 85 21
Width: 360
VWidth: 799
Flags: HW
HStem: 0 88.8633<123.493 157.829 202.106 236.443>
VStem: 25 88.553<100.506 133.301> 246.382 88.553<100.506 133.301>
LayerCount: 2
Fore
SplineSet
114 0 m 0
 69.6151 0 25 45.1134 25 89 c 0
 25 266.667 25 444.333 25 622 c 1
 114 622 l 1
 114 459 114 296 114 133 c 0
 114 102.405 125.854 89 158 89 c 2
 202 89 l 2
 234.15 89 246 102.394 246 133 c 2
 246 622 l 1
 335 622 l 1
 335 444.333 335 266.667 335 89 c 0
 335 45.1151 290.373 0 246 0 c 0
 202 -0 158 0 114 0 c 0
EndSplineSet
Validated: 1
EndChar

StartChar: V
Encoding: 278 86 22
Width: 360
VWidth: 799
Flags: HW
LayerCount: 2
Fore
SplineSet
25 622 m 1
 114 622 l 1
 180 156 l 1
 246 622 l 1
 335 622 l 1
 246 0 l 1
 114 0 l 1
 25 622 l 1
EndSplineSet
Validated: 1
EndChar

StartChar: W
Encoding: 279 87 23
Width: 448
VWidth: 799
Flags: HW
LayerCount: 2
Fore
SplineSet
25 622 m 1
 114 622 l 1
 158 307 l 1
 182 467 l 1
 267 467 l 1
 267 465 l 1
 269 465 l 1
 291 311 l 1
 335 622 l 1
 423 622 l 1
 335 0 l 1
 246 0 l 1
 224 159 l 1
 202 0 l 1
 114 0 l 1
 25 622 l 1
EndSplineSet
Validated: 1
EndChar

StartChar: X
Encoding: 280 88 24
Width: 360
VWidth: 799
Flags: HW
LayerCount: 2
Fore
SplineSet
25 622 m 1
 114 622 l 1
 180 435 l 1
 246 622 l 1
 335 622 l 1
 224 311 l 1
 335 0 l 1
 246 0 l 1
 180 187 l 1
 114 0 l 1
 25 0 l 1
 136 311 l 1
 25 622 l 1
EndSplineSet
Validated: 1
EndChar

StartChar: Y
Encoding: 281 89 25
Width: 360
VWidth: 799
Flags: HW
LayerCount: 2
Fore
SplineSet
25 622 m 1
 114 622 l 1
 180 435 l 1
 246 622 l 1
 335 622 l 1
 224 311 l 1
 224 0 l 1
 136 0 l 1
 136 311 l 1
 25 622 l 1
EndSplineSet
Validated: 1
EndChar

StartChar: Z
Encoding: 282 90 26
Width: 359
VWidth: 799
Flags: W
HStem: 0 88.8633<113.553 334.935> 533.191 88.875<25 246.382>
VStem: 25 309.935<0 88.8633 533.191 622.066>
LayerCount: 2
Fore
SplineSet
25 622.066 m 1
 334.935 622.066 l 1
 334.935 533.191 l 1
 113.553 88.8633 l 1
 334.935 88.8633 l 1
 334.935 0 l 1
 25 0 l 1
 25 88.8633 l 1
 246.382 533.191 l 1
 25 533.191 l 1
 25 622.066 l 1
EndSplineSet
Validated: 1
EndChar

StartChar: Lcaron
Encoding: 298 317 42
Width: 359
VWidth: 799
Flags: W
VStem: 25 309.935
LayerCount: 2
Fore
SplineSet
25 799.8 m 1
 113.553 666.503 l 1
 157.829 666.503 l 1
 202.106 666.503 l 1
 246.382 666.503 l 1
 334.935 799.8 l 1
 246.382 799.8 l 1
 179.967 699.82 l 1
 113.553 799.8 l 1
 25 799.8 l 1
25 622.066 m 1
 25 88.874 l 1
 25 0 l 1
 113.553 0 l 1
 334.935 0 l 1
 334.935 88.874 l 1
 113.553 88.874 l 1
 113.553 622.066 l 1
 25 622.066 l 1
EndSplineSet
Validated: 9
EndChar

StartChar: Aogonek
Encoding: 307 260 51
Width: 360
VWidth: 799
Flags: HW
HStem: 0 17.7842<265.911 281.411>
LayerCount: 2
Fore
SplineSet
246.381 17.7842 m 1
 334.935 0 l 1
 308.369 0 l 2
 284.017 0 266.583 -5.27539 256.067 -15.8271 c 0
 245.552 -26.3789 236.42 -43.3184 228.672 -66.6445 c 1
 227.137 -75.883 226.37 -84.3173 226.37 -91.9471 c 0
 226.37 -105.304 228.722 -116.196 233.425 -124.623 c 0
 240.134 -136.646 249.523 -142.657 261.591 -142.657 c 0
 262.814 -142.657 264.064 -142.595 265.341 -142.472 c 0
 279.228 -141.131 293.57 -133.628 308.369 -119.963 c 1
 334.935 -133.289 l 1
 333.79 -143.852 332.481 -152.276 331.01 -158.563 c 0
 329.539 -164.851 326.805 -172.072 322.807 -180.229 c 0
 318.809 -188.386 312.646 -194.452 304.315 -198.428 c 0
 295.985 -202.403 285.53 -204.392 272.947 -204.392 c 2
 210.961 -204.392 l 2
 191.231 -204.392 174.492 -192.992 160.742 -170.194 c 0
 146.993 -147.396 140.118 -120.285 140.118 -88.8633 c 0
 140.118 -72.7559 141.186 -59.6123 143.322 -49.4326 c 0
 145.459 -39.2529 149.452 -31.1533 155.304 -25.1338 c 0
 161.154 -19.1143 166.506 -14.8389 171.359 -12.3086 c 0
 176.213 -9.77832 184.012 -6.56934 194.758 -2.68164 c 0
 197.981 -1.51562 200.431 -0.621094 202.105 0 c 0
 219.816 4.44531 230.516 7.41016 234.205 8.8916 c 0
 237.896 10.374 241.953 13.3379 246.381 17.7842 c 1
EndSplineSet
Refer: 1 65 N 1 0 0 1 0 0 2
Validated: 524293
EndChar

StartChar: Eogonek
Encoding: 308 280 52
Width: 360
VWidth: 799
Flags: HW
HStem: -20 20G<296.194 334.935>
VStem: 25 309.935
LayerCount: 2
Fore
SplineSet
246.382 0 m 2
 334.935 0 l 1
 308.37 0 l 2
 284.018 0 266.583 -5.27539 256.067 -15.8271 c 0
 245.552 -26.3789 236.42 -43.3174 228.671 -66.6445 c 1
 224.451 -92.0566 226.036 -111.383 233.426 -124.623 c 0
 240.815 -137.863 251.454 -143.813 265.342 -142.472 c 0
 279.229 -141.131 293.571 -133.628 308.37 -119.963 c 1
 334.935 -133.29 l 1
 333.79 -143.852 332.482 -152.275 331.011 -158.563 c 0
 329.539 -164.852 326.805 -172.073 322.807 -180.229 c 0
 318.809 -188.385 312.646 -194.451 304.315 -198.428 c 0
 295.985 -202.404 285.529 -204.393 272.948 -204.392 c 2
 210.961 -204.392 l 1
 192.415 -203.248 175.972 -191.337 161.631 -168.657 c 0
 147.29 -145.979 140.119 -119.38 140.119 -88.8633 c 0
 140.119 -60.4092 151.33 -38.4854 173.752 -23.0918 c 0
 196.173 -7.69727 220.383 0 246.382 0 c 2
EndSplineSet
Refer: 5 69 N 1 0 0 1 0 0 2
Validated: 37
EndChar

StartChar: Lslash
Encoding: 309 321 53
Width: 404
VWidth: 799
Flags: W
LayerCount: 2
Fore
SplineSet
69.2754 622.066 m 1
 69.2754 257.72 l 1
 25 222.175 l 1
 25 133.301 l 1
 69.2754 168.846 l 1
 69.2754 88.874 l 1
 69.2754 0 l 1
 157.828 0 l 1
 379.211 0 l 1
 379.211 88.874 l 1
 157.828 88.874 l 1
 157.828 239.948 l 1
 246.381 311.038 l 1
 246.381 399.902 l 1
 157.828 328.811 l 1
 157.828 622.066 l 1
 69.2754 622.066 l 1
EndSplineSet
Validated: 9
EndChar

StartChar: zero
Encoding: 312 48 56
Width: 361
VWidth: 799
Flags: HW
HStem: 0 88.8672<123.868 237.243> 533.203 88.866<126.498 234.622>
VStem: 25 88.892<100.507 520.6> 247.229 88.891<100.504 520.6>
LayerCount: 2
Fore
SplineSet
25 533 m 2
 25 576.885 70.1134 622 114 622 c 0
 158.333 622 202.667 622 247 622 c 0
 290.885 622 336 576.887 336 533 c 2
 336 89 l 2
 336 45.1151 290.887 0 247 0 c 0
 202.667 -0 158.333 0 114 0 c 0
 70.1151 0 25 45.1134 25 89 c 2
 25 533 l 2
247 489 m 2
 247 515.396 229.4 533 203 533 c 2
 158 533 l 2
 131.604 533 114 515.4 114 489 c 2
 114 133 l 2
 114 103.448 126.405 89 158 89 c 2
 203 89 l 2
 235.15 89 247 102.394 247 133 c 2
 247 489 l 2
EndSplineSet
Validated: 1
EndChar

StartChar: one
Encoding: 313 49 57
Width: 228
VWidth: 799
Flags: HW
VStem: 25 177.783
LayerCount: 2
Fore
SplineSet
114 622 m 1
 203 622 l 1
 203 0 l 1
 114 0 l 1
 114 507 l 1
 25 427 l 1
 25 533 l 1
 114 622 l 1
EndSplineSet
Validated: 1
EndChar

StartChar: two
Encoding: 314 50 58
Width: 361
VWidth: 799
Flags: W
HStem: 0 88.8672<113.892 247.229> 444.336 21G<25 113.892> 533.203 88.866<126.498 234.622>
VStem: 25 88.892<88.8672 189.019 444.336 520.6> 247.229 88.891<88.8672 177.734 390.68 520.6>
LayerCount: 2
Fore
SplineSet
247.229 622.069 m 2
 269.451 622.069 289.822 612.812 308.342 594.299 c 0
 326.86 575.784 336.12 555.42 336.12 533.203 c 2
 336.12 399.902 l 1
 332.663 379.627 319.219 356.868 295.787 331.627 c 0
 272.354 306.386 247.565 284.024 221.418 264.543 c 0
 195.271 245.062 171.145 224.667 149.036 203.361 c 0
 126.928 182.055 115.213 164.626 113.892 151.074 c 1
 113.892 88.8672 l 1
 247.229 88.8672 l 1
 247.229 177.734 l 1
 336.12 177.734 l 1
 336.12 0 l 1
 25 0 l 1
 25 88.8672 l 1
 25 177.734 l 1
 27.8086 196.724 40.8389 218.975 64.0908 244.486 c 0
 87.3428 269.999 112.144 292.984 138.492 313.443 c 0
 164.841 333.902 189.209 354.874 211.596 376.357 c 0
 233.982 397.841 245.86 414.576 247.229 426.562 c 1
 247.229 488.77 l 2
 247.229 502.1 243.154 512.838 235.006 520.984 c 0
 226.857 529.129 216.116 533.202 202.783 533.203 c 2
 158.337 533.203 l 2
 145.003 533.203 134.263 529.13 126.114 520.984 c 0
 117.966 512.837 113.892 502.099 113.892 488.77 c 2
 113.892 444.336 l 1
 25 444.336 l 1
 25 533.203 l 2
 25 555.42 34.2598 575.785 52.7783 594.299 c 0
 71.2979 612.812 91.6689 622.069 113.892 622.069 c 2
 202.783 622.069 l 1
 247.229 622.069 l 2
EndSplineSet
Validated: 1
EndChar

StartChar: three
Encoding: 315 51 59
Width: 361
VWidth: 799
Flags: HW
HStem: 0 88.8672<126.498 158.337 202.783 234.622> 284.375 71.076<172.904 243.093> 533.202 88.8669<126.498 158.337 202.783 234.622>
VStem: 25 88.892<101.471 133.301 488.77 520.6> 247.229 88.891<101.471 133.301 231.055 281.65 363.856 408.789 488.77 520.599>
LayerCount: 2
Fore
SplineSet
25 533 m 2
 25 576.885 70.1134 622 114 622 c 0
 158.333 622 202.667 622 247 622 c 0
 290.885 622 336 576.887 336 533 c 0
 336 491.667 336 450.333 336 409 c 0
 336 350 318 320 283 320 c 1
 318 320 336 290 336 231 c 0
 336 183.667 336 136.333 336 89 c 0
 336 45.1151 290.887 0 247 0 c 0
 202.667 -0 158.333 0 114 0 c 0
 70.1151 0 25 45.1134 25 89 c 2
 25 178 l 1
 114 178 l 1
 114 133 l 2
 114 106.604 131.6 89 158 89 c 2
 203 89 l 2
 229.396 89 247 106.6 247 133 c 0
 247 171.667 247 210.333 247 249 c 0
 247 274.885 234.537 285 208 285 c 1
 200 286 193 286 186 286 c 1
 180 285 170 285 157 285 c 0
 144 285 133 284 123 284 c 1
 123 355 l 1
 137 355 l 2
 154 355 166 355 173 356 c 1
 185.453 356 213.002 357.401 222 361 c 0
 229.997 364.999 241.3 371.751 245 381 c 0
 246 386 247 392 247 400 c 0
 247 429.667 247 459.333 247 489 c 0
 247 515.396 229.4 533 203 533 c 2
 158 533 l 2
 131.604 533 114 515.4 114 489 c 2
 114 444 l 1
 25 444 l 1
 25 533 l 2
EndSplineSet
Validated: 1
EndChar

StartChar: four
Encoding: 316 52 60
Width: 361
VWidth: 799
Flags: HW
VStem: 25 311.12
LayerCount: 2
Fore
SplineSet
203 622 m 1
 292 622 l 1
 114 267 l 1
 247 267 l 1
 247 329 l 1
 336 329 l 1
 336 0 l 1
 247 0 l 1
 247 178 l 1
 25 178 l 1
 25 267 l 1
 203 622 l 1
EndSplineSet
Validated: 1
EndChar

StartChar: five
Encoding: 317 53 61
Width: 361
VWidth: 799
Flags: HW
HStem: 0 88.8672<126.498 158.337 202.783 234.622> 302.148 71.094<118.087 176.115 220.932 240.4>
VStem: 25 88.892<101.471 133.301 257.715 296.863> 247.229 88.891<101.471 133.301 248.828 282.924>
LayerCount: 2
Fore
SplineSet
158 373 m 0
 142 373 127 371 114 367 c 1
 114 533 l 1
 336 533 l 1
 336 622 l 1
 25 622 l 1
 25 258 l 1
 114 258 l 1
 114 296 139 302 176 302 c 0
 214 302 247 297 247 258 c 0
 247 217 247 174 247 133 c 0
 247 106 230 89 203 89 c 2
 158 89 l 2
 131 89 114 106 114 133 c 2
 114 178 l 1
 25 178 l 1
 25 89 l 2
 25 45 70 0 114 0 c 0
 158 0 203 0 247 0 c 0
 291 0 336 45 336 89 c 0
 336 142 336 196 336 249 c 0
 336 328 279 370 202 373 c 0
 192 373 177 373 158 373 c 0
EndSplineSet
Validated: 9
EndChar

StartChar: six
Encoding: 318 54 62
Width: 361
VWidth: 799
Flags: HW
HStem: 0 89<126.498 158.337 202.783 234.622> 302 71<128.542 165.837 176.115 240.4> 533 89<126.498 158.337 202.783 234.622>
VStem: 25 89<101.471 133.301 257.715 292.434 488.77 520.6> 247 89<101.471 133.301 248.828 282.924 488.77 520.6>
LayerCount: 2
Fore
SplineSet
336 533 m 0
 336 578.467 289.696 618.287 247 622 c 1
 202.667 622 158.333 622 114 622 c 0
 70.7034 622 25 576.294 25 533 c 2
 25 89 l 2
 25 45.7034 70.7059 0 114 0 c 0
 158.333 -0 202.667 0 247 0 c 0
 290.297 0 336 45.7059 336 89 c 0
 336 142.333 336 195.667 336 249 c 0
 336 314.956 293.224 355.952 237 368 c 0
 223 371 212 373 202 373 c 2
 158 373 l 2
 143 373 129 371 114 367 c 1
 114 489 l 2
 114 515.396 131.6 533 158 533 c 2
 203 533 l 2
 229.396 533 247 515.4 247 489 c 2
 247 444 l 1
 336 444 l 1
 336 473.667 336 503.333 336 533 c 0
114 258 m 0
 114 291.81 132.87 302 166 302 c 2
 176 302 l 2
 214.897 302 247 297.946 247 258 c 0
 247 216.333 247 174.667 247 133 c 0
 247 106.604 229.4 89 203 89 c 2
 158 89 l 2
 131.604 89 114 106.6 114 133 c 0
 114 174.667 114 216.333 114 258 c 0
EndSplineSet
Validated: 524297
EndChar

StartChar: seven
Encoding: 319 55 63
Width: 329
VWidth: 799
Flags: HW
VStem: 25 279
LayerCount: 2
Fore
SplineSet
25 622 m 1
 25 533 l 1
 216 533 l 1
 152 355 l 1
 43 355 l 1
 43 267 l 1
 120 267 l 1
 25 0 l 1
 114 0 l 1
 209 267 l 1
 236.667 267 264.333 267 292 267 c 1
 292 355 l 1
 275 355 258 355 241 355 c 1
 304 533 l 1
 304 622 l 1
 25 622 l 1
EndSplineSet
Validated: 524297
EndChar

StartChar: eight
Encoding: 320 56 64
Width: 361
VWidth: 799
Flags: HW
HStem: 0 89<126.614 158.338 202.783 234.622> 284 71<129.276 231.545> 533 89<126.498 158.338 202.783 234.622>
VStem: 25 89<101.995 133.301 231.055 276.291 363.556 408.789 488.77 520.599> 247 89<101.471 133.301 231.055 276.232 363.599 408.789 488.77 520.599>
LayerCount: 2
Fore
SplineSet
114 622 m 2
 73.0024 622 41.2316 588.579 29 558 c 0
 26 550 25 541 25 533 c 0
 25 491.667 25 450.333 25 409 c 0
 25 350 42 320 78 320 c 1
 42 320 25 290 25 231 c 0
 25 183.667 25 136.333 25 89 c 0
 25 72.6621 30.4196 59.9673 37 49 c 0
 50.5911 25.2156 79.3249 0 114 0 c 2
 247 0 l 2
 287.998 0 319.768 33.421 332 64 c 0
 335 72 336 81 336 89 c 0
 336 136.333 336 183.667 336 231 c 0
 336 290 319 320 283 320 c 1
 319 320 336 350 336 409 c 0
 336 450.333 336 491.667 336 533 c 0
 336 549.338 330.58 562.033 324 573 c 0
 310.409 596.784 281.675 622 247 622 c 2
 114 622 l 2
114 489 m 0
 114 515.396 131.6 533 158 533 c 2
 203 533 l 2
 229.396 533 247 515.4 247 489 c 0
 247 456.333 247 423.667 247 391 c 0
 247 358.671 219.162 355 181 355 c 0
 141.872 355 114 358.355 114 391 c 0
 114 423.667 114 456.333 114 489 c 0
181 284 m 0
 218.482 284 247 280.53 247 249 c 0
 247 210.333 247 171.667 247 133 c 0
 247 106.604 229.4 89 203 89 c 2
 158 89 l 1
 132.673 90.9482 114 106.166 114 133 c 0
 114 171.667 114 210.333 114 249 c 0
 114 282.118 141.393 284 181 284 c 0
EndSplineSet
Validated: 524297
EndChar

StartChar: nine
Encoding: 321 57 65
Width: 361
VWidth: 799
Flags: HW
HStem: 0 89<126.498 158.337 202.783 234.622> 249 71<117.225 241.152> 533 89<126.498 158.337 202.783 234.622>
VStem: 25 89<101.471 133.301 324.144 373.242 488.77 520.6> 247 89<101.471 133.301 327.996 364.355 488.77 520.6>
LayerCount: 2
Fore
SplineSet
25 89 m 0
 25 43.5334 71.3037 3.71272 114 0 c 1
 158.333 -0 202.667 0 247 0 c 0
 290.297 0 336 45.7059 336 89 c 2
 336 533 l 2
 336 576.297 290.294 622 247 622 c 0
 202.667 622 158.333 622 114 622 c 0
 70.7034 622 25 576.294 25 533 c 0
 25 479.667 25 426.333 25 373 c 0
 25 297.413 84.3931 249 158 249 c 0
 212.526 249 202.56 248.82 247 267 c 1
 247 133 l 2
 247 106.604 229.4 89 203 89 c 2
 158 89 l 2
 131.604 89 114 106.6 114 133 c 2
 114 178 l 1
 25 178 l 1
 25 148.333 25 118.667 25 89 c 0
203 533 m 2
 229.396 533 247 515.4 247 489 c 0
 247 447.333 247 405.667 247 364 c 0
 247 335 226 321 185 320 c 1
 167 320 l 2
 131.1 320 114 327.361 114 364 c 0
 114 405.667 114 447.333 114 489 c 0
 114 515.396 131.6 533 158 533 c 2
 203 533 l 2
EndSplineSet
Validated: 524329
EndChar

StartChar: acute
Encoding: 322 180 66
Width: 227
VWidth: 799
Flags: W
HStem: 666.003 133.297
AnchorPoint: "top" 61.5525 662.07 mark 0
LayerCount: 2
Fore
SplineSet
113.554 799.3 m 1
 25 666.003 l 1
 113.554 666.003 l 1
 202.105 799.3 l 1
 113.554 799.3 l 1
EndSplineSet
Validated: 1
Substitution2: "Polish letters" acute.alt
EndChar

StartChar: ring
Encoding: 323 730 67
Width: 182
VWidth: 799
Flags: W
HStem: 666.503 44.426<75.969 106.865> 755.366 44.434<72.8017 110.028>
VStem: 25 44.2773<714.474 751.828> 113.554 44.276<717.641 748.643>
LayerCount: 2
Fore
SplineSet
91.415 799.8 m 4
 73.0762 799.8 57.4219 793.292 44.4531 780.277 c 4
 31.4844 767.262 25 751.552 25 733.148 c 4
 25 714.743 31.4844 699.034 44.4531 686.022 c 4
 57.4209 673.01 73.0752 666.503 91.415 666.503 c 4
 109.756 666.503 125.41 673.01 138.378 686.022 c 4
 151.346 699.037 157.83 714.746 157.83 733.148 c 4
 157.83 751.553 151.346 767.262 138.377 780.277 c 4
 125.409 793.292 109.755 799.8 91.415 799.8 c 4
91.415 755.366 m 4
 97.5234 755.366 102.741 753.193 107.066 748.847 c 4
 111.393 744.5 113.555 739.268 113.554 733.148 c 4
 113.554 727.018 111.392 721.781 107.068 717.439 c 4
 102.745 713.088 97.5273 710.918 91.415 710.929 c 4
 85.3066 710.939 80.0908 713.113 75.7656 717.449 c 4
 71.4404 721.796 69.2773 727.029 69.2773 733.148 c 4
 69.2773 739.284 71.4385 744.521 75.7617 748.859 c 4
 80.084 753.197 85.3018 755.366 91.415 755.366 c 4
EndSplineSet
Validated: 9
EndChar

StartChar: dieresis
Encoding: 324 168 68
Width: 309
VWidth: 799
Flags: W
HStem: 666.503 88.863
LayerCount: 2
Fore
SplineSet
0 755.366 m 5
 0 666.503 l 5
 88.5527 666.503 l 5
 88.5527 755.366 l 5
 0 755.366 l 5
221.383 755.366 m 5
 221.383 666.503 l 5
 309.935 666.503 l 5
 309.935 755.366 l 5
 221.383 755.366 l 5
EndSplineSet
Validated: 1
EndChar

StartChar: asciicircum
Encoding: 325 94 69
Width: 359
VWidth: 799
Flags: W
LayerCount: 2
Fore
SplineSet
113.553 799.8 m 5
 25 666.503 l 5
 113.553 666.503 l 5
 179.968 766.476 l 5
 246.382 666.503 l 5
 334.935 666.503 l 5
 246.382 799.8 l 5
 202.106 799.8 l 5
 157.829 799.8 l 5
 113.553 799.8 l 5
EndSplineSet
Validated: 9
EndChar

StartChar: caron
Encoding: 326 711 70
Width: 359
VWidth: 799
Flags: W
AnchorPoint: "top" 180 666 mark 0
LayerCount: 2
Fore
SplineSet
25 799.8 m 1
 113.553 666.503 l 5
 246.382 666.503 l 5
 334.935 799.8 l 1
 246.382 799.8 l 1
 179.968 699.82 l 1
 113.553 799.8 l 1
 25 799.8 l 1
EndSplineSet
Validated: 9
EndChar

StartChar: acute.alt
Encoding: 327 -1 71
Width: 182
VWidth: 799
Flags: W
HStem: 666.503 133.297
LayerCount: 2
Fore
SplineSet
69.2764 799.8 m 5
 25 666.503 l 5
 113.554 666.503 l 5
 157.829 799.8 l 5
 69.2764 799.8 l 5
EndSplineSet
Validated: 1
EndChar

StartChar: dotabove
Encoding: 329 775 73
Width: 138
VWidth: 799
Flags: W
HStem: 710.929 88.871
VStem: 25 88.552
AnchorPoint: "top" 70.776 710.52 mark 0
LayerCount: 2
Fore
SplineSet
25 799.8 m 1
 25 710.929 l 1
 113.552 710.929 l 1
 113.552 799.8 l 1
 25 799.8 l 1
EndSplineSet
Validated: 1
EndChar

StartChar: emdash
Encoding: 330 8212 74
Width: 359
VWidth: 799
UnlinkRmOvrlpSave: 1
Flags: W
HStem: 266.601 88.863<25 334.934>
VStem: 25 309.934<266.601 355.464>
LayerCount: 2
Fore
SplineSet
25 355.464 m 5
 334.934 355.464 l 1
 334.934 266.601 l 1
 231.622 266.601 128.311 266.601 25 266.601 c 1
 25 355.464 l 5
EndSplineSet
Validated: 1
EndChar

StartChar: grave
Encoding: 337 96 81
Width: 227
VWidth: 799
Flags: HW
HStem: 666 133.297
AnchorPoint: "top" 160.553 666.07 mark 0
LayerCount: 2
Fore
SplineSet
112.554 666 m 1
 201.105 666 l 1
 112.554 799.297 l 1
 24 799.297 l 1
 112.554 666 l 1
EndSplineSet
Validated: 524297
EndChar

StartChar: c
Encoding: 349 99 93
Width: 359
VWidth: 799
Flags: HW
HStem: -0.5 88.8633<123.493 236.443> 355.464 88.875<126.111 233.823>
VStem: 25 88.552<100.506 342.863> 246.248 88.553<100.007 136 305 342.863>
AnchorPoint: "top" 176.967 481 basechar 0
LayerCount: 2
Back
Refer: 2 66 S 1 0 0 1 0 0 2
Fore
SplineSet
246.383 444.293 m 2,0,-1
246.248 310.426 m 2,1,-1
 246.248 324.365 242.323 335.1 234.205 343.247 c 0,4,-1
 226.088 351.393 215.388 355.464 202.104 355.464 c 2,7,-1
 157.829 355.464 l 2,8,-1
 144.546 355.464 133.846 351.393 125.729 343.247 c 0,11,-1
 117.609 335.102 113.552 324.365 113.552 311.038 c 2,14,-1
 113.552 222.164 l 2,15,-1
 113.552 192.543 113.552 162.922 113.552 133.301 c 0,18,-1
 113.543 118.726 116.755 107.676 123.188 100.151 c 0,21,-1
 129.62 92.626 141.167 88.8633 157.829 88.8633 c 2,24,-1
 202.105 88.3633 l 2,25,-1
 218.768 88.3633 230.315 92.126 236.748 99.6514 c 0,28,-1
 243.18 107.176 246.383 118.227 246.382 132.801 c 2,31,-1
 246.382 136 l 1,32,-1
 334.935 136 l 1,33,-1
 334.935 88.3633 l 2,34,-1
 334.936 66.1484 325.711 45.7861 307.262 27.2715 c 0,37,-1
 288.812 8.75684 268.52 -0.5 246.382 -0.5 c 0,40,-1
 202.166 -0.272701 158.107 0.1112 113.552 0 c 0,43,-1
 91.415 0 71.1221 9.25684 52.6729 27.7715 c 0,46,-1
 34.2246 46.2861 25 66.6494 25 88.8633 c 2,49,-1
 25 222.164 l 1,50,-1
 25 355.464 l 2,51,-1
 25 377.683 34.2246 398.05 52.6729 416.566 c 0,54,-1
 71.1211 435.082 91.4141 444.339 113.552 444.339 c 2,57,-1
 157.829 444.339 l 1,58,-1
 246.382 444.339 l 2,59,-1
 268.52 444.339 288.812 435.082 307.262 416.566 c 0,62,-1
 325.71 398.05 334.801 377.683 334.801 354.863 c 2,65,-1
 334.801 305 l 1,66,-1
 246.248 305 l 1,67,-1
 246.248 310.426 l 2,1,-1
202.105 355.43 m 2,68,-1
EndSplineSet
Validated: 33
EndChar

StartChar: o
Encoding: 350 111 94
Width: 360
VWidth: 799
Flags: HW
HStem: 0 73<123.493 157.829 202.105 236.443> 371 73<126.111 157.829 202.104 233.823>
VStem: 25 89<84.5067 117.301 327.038 358.863> 246 89<84.5067 117.301 327.038 358.863>
AnchorPoint: "top" 177 481 basechar 0
LayerCount: 2
Fore
SplineSet
246 178 m 1
 246 117 l 2
 246 102 243 92 237 84 c 0
 231 76 219 73 202 73 c 2
 158 73 l 2
 141 73 129 76 123 84 c 0
 117 92 114 102 114 117 c 0
 114 147 114 192 114 222 c 2
 114 327 l 2
 114 340 118 351 126 359 c 0
 134 367 145 371 158 371 c 2
 202 371 l 2
 215 371 226 367 234 359 c 0
 242 351 246 340 246 327 c 2
 246 178 l 1
335 355 m 2
 335 377 325 398 307 417 c 0
 289 436 268 444 246 444 c 2
 158 444 l 1
 114 444 l 2
 92 444 71 436 53 417 c 0
 35 398 25 377 25 355 c 2
 25 222 l 1
 25 89 l 2
 25 67 35 47 53 28 c 0
 71 9 92 0 114 0 c 2
 158 0 l 1
 246 0 l 2
 268 0 289 9 307 28 c 0
 325 47 335 67 335 89 c 2
 335 178 l 1
 335 355 l 2
EndSplineSet
Validated: 9
EndChar

StartChar: n
Encoding: 351 110 95
Width: 360
VWidth: 799
Flags: HW
HStem: 0 21G<25 113.552 246.382 334.935> 371 73<118.977 240.957>
VStem: 25 89<0 366.005> 246 89<0 365.729>
AnchorPoint: "top" 177 481 basechar 0
LayerCount: 2
Fore
SplineSet
246 444 m 2
 290 444 335 399 335 355 c 0
 335 237 335 118 335 0 c 1
 246 0 l 1
 246 109 246 218 246 327 c 0
 246 354 228 371 202 371 c 2
 158 371 l 2
 132 371 114 354 114 327 c 0
 114 218 114 109 114 0 c 1
 25 0 l 1
 25 444 l 1
 246 444 l 2
EndSplineSet
Validated: 1
EndChar

StartChar: e
Encoding: 352 101 96
Width: 360
VWidth: 799
Flags: HW
HStem: -0 73<117.006 242.93> 187 69<113.552 246.248> 371 73<118.977 240.936>
VStem: 25 89<76.5531 186.601 255.464 365.729> 246 89<76.0522 136 255.464 365.27>
AnchorPoint: "top" 177 481 basechar 0
LayerCount: 2
Fore
SplineSet
158 371 m 2
 132 371 114 354 114 327 c 2
 114 256 l 1
 246 256 l 1
 246 326 l 2
 246 353 229 371 202 371 c 2
 158 371 l 2
246 444 m 0
 290 444 335 399 335 355 c 2
 335 265 l 1
 335 265 l 1
 335 187 l 1
 114 187 l 1
 114 117 l 2
 114 86 126 73 158 73 c 2
 202 73 l 2
 234 73 246 86 246 117 c 2
 246 136 l 1
 335 136 l 1
 335 88 l 2
 335 44 290 0 246 -0 c 0
 202 0 159 0 114 0 c 0
 70 0 25 45 25 89 c 2
 25 355 l 2
 25 399 70 444 114 444 c 0
 158 444 202 444 246 444 c 0
EndSplineSet
Validated: 1
EndChar

StartChar: a
Encoding: 353 97 97
Width: 360
VWidth: 799
Flags: HW
HStem: -0 69<117.138 157.961> 184 73<118.997 157.828 199.382 240.957> 371 73<117.004 157.828 202.104 242.644>
VStem: 25 89<72.3321 112.827 139.325 178.17 327.038 367.787> 246 89<139.938 178.904 328 367.286>
AnchorPoint: "top" 177 481 basechar 0
LayerCount: 2
Fore
SplineSet
158 69 m 2
 126 69 114 82 114 113 c 2
 114 139 l 2
 114 166 131 184 158 184 c 2
 202 184 l 2
 228 184 246 167 246 140 c 2
 246 69 l 1
 158 69 l 2
246 238 m 2
 247 238 l 2
 246 238 l 2
246 238 m 1
 233 250 217 257 199 257 c 2
 114 257 l 2
 70 257 25 212 25 168 c 2
 25 89 l 2
 25 45 70 0 114 -0 c 0
 166 0 195 -1 247 0 c 0
 276 0 306 0 335 0 c 1
 335 118 335 237 335 355 c 0
 335 399 290 444 246 444 c 0
 201 444 158 444 114 444 c 0
 70 444 25 399 25 355 c 2
 25 308 l 1
 114 308 l 1
 114 327 l 2
 114 358 126 371 158 371 c 2
 202 371 l 2
 233 371 246 358 246 328 c 2
 246 238 l 1
EndSplineSet
Validated: 37
EndChar

StartChar: d
Encoding: 354 100 98
Width: 360
VWidth: 799
Flags: HW
HStem: 0 73<117.005 157.829 202.104 242.897> 371 73<118.977 157.829 202.104 241.014>
VStem: 25 89<76.5526 117.301 327.038 365.729> 246 89<76.1674 109.006 333.874 366.395>
LayerCount: 2
Fore
SplineSet
202 371 m 6
 226 371 243 356 246 334 c 5
 246 109 l 5
 244 84 231 73 202 73 c 6
 158 73 l 6
 126 73 114 86 114 117 c 6
 114 327 l 6
 114 354 132 371 158 371 c 6
 202 371 l 6
25 89 m 4
 25 45 70 0 114 0 c 4
 188 0 261 0 335 0 c 5
 335 81 l 6
 335 84 335 86 335 89 c 4
 335 178 335 266 335 355 c 4
 335 358 335 360 335 363 c 6
 335 622 l 5
 246 622 l 5
 246 444 l 5
 202 444 158 444 114 444 c 4
 70 444 25 399 25 355 c 4
 25 266 25 178 25 89 c 4
EndSplineSet
Validated: 9
EndChar

StartChar: b
Encoding: 355 98 99
Width: 360
VWidth: 799
Flags: HW
HStem: 0 73<117.038 242.93> 371 73<118.921 240.958> 602 20G<25.3818 113.935>
VStem: 25 89<76.1675 366.395 444.339 622.066> 246 89<76.5526 365.729>
LayerCount: 2
Fore
SplineSet
158 371 m 2
 134 371 117 356 114 334 c 1
 114 109 l 1
 116 84 129 73 158 73 c 2
 202 73 l 2
 234 73 246 86 246 117 c 2
 246 327 l 2
 246 354 228 371 202 371 c 2
 158 371 l 2
335 89 m 0
 335 45 290 0 246 0 c 0
 172 0 99 0 25 0 c 1
 25 81 l 2
 25 84 25 86 25 89 c 0
 25 178 25 266 25 355 c 0
 25 358 25 360 25 363 c 2
 25 622 l 1
 114 622 l 1
 114 444 l 1
 158 444 202 444 246 444 c 0
 290 444 335 399 335 355 c 0
 335 266 335 178 335 89 c 0
EndSplineSet
Validated: 1
EndChar

StartChar: q
Encoding: 356 113 100
Width: 360
VWidth: 799
Flags: HW
HStem: -178 21G<246 334.553> 0 73<118.977 241.014> 371 73<117.005 242.897>
VStem: 25 89<78.6099 367.787> 246 89<-177.728 0 77.9439 368.172>
LayerCount: 2
Fore
SplineSet
202 73 m 2
 226 73 243 88 246 110 c 1
 246 335 l 1
 244 360 231 371 202 371 c 2
 158 371 l 2
 126 371 114 358 114 327 c 2
 114 117 l 2
 114 90 132 73 158 73 c 2
 202 73 l 2
25 355 m 0
 25 399 70 444 114 444 c 0
 188 444 261 444 335 444 c 1
 335 363 l 2
 335 360 335 358 335 355 c 0
 335 266 335 178 335 89 c 0
 335 86 335 84 335 81 c 2
 335 -178 l 1
 246 -178 l 1
 246 0 l 1
 202 0 158 0 114 0 c 0
 70 0 25 45 25 89 c 0
 25 178 25 266 25 355 c 0
EndSplineSet
Validated: 1
EndChar

StartChar: p
Encoding: 357 112 101
Width: 360
VWidth: 799
Flags: HW
HStem: 0 73<118.921 157.83 202.105 240.958> 371 73<117.038 157.83 202.105 242.93>
VStem: 25 89<77.9439 110.465 335.333 368.172> 246 89<78.6099 117.301 327.038 367.787>
LayerCount: 2
Fore
SplineSet
158 73 m 2
 134 73 117 88 114 110 c 1
 114 335 l 1
 116 360 129 371 158 371 c 2
 202 371 l 2
 234 371 246 358 246 327 c 2
 246 117 l 2
 246 90 228 73 202 73 c 2
 158 73 l 2
335 355 m 0
 335 399 290 444 246 444 c 0
 172 444 99 444 25 444 c 1
 25 363 l 2
 25 360 25 358 25 355 c 0
 25 266 25 178 25 89 c 0
 25 86 25 84 25 81 c 2
 25 -178 l 1
 114 -178 l 1
 114 0 l 1
 158 0 202 0 246 0 c 0
 290 0 335 45 335 89 c 0
 335 178 335 266 335 355 c 0
EndSplineSet
Validated: 9
EndChar

StartChar: r
Encoding: 358 114 102
Width: 360
VWidth: 799
Flags: HW
HStem: 0 21G<25 113.552> 371 73<118.977 240.957>
VStem: 25 89<0 366.005> 246 89<311.004 365.729>
AnchorPoint: "top" 177 481 basechar 0
LayerCount: 2
Fore
SplineSet
246 444 m 6
 290 444 335 399 335 355 c 6
 335 311 l 5
 305 311 276 311 246 311 c 5
 246 327 l 6
 246 354 228 371 202 371 c 6
 158 371 l 6
 132 371 114 354 114 327 c 4
 114 218 114 109 114 0 c 5
 25 0 l 5
 25 444 l 5
 246 444 l 6
EndSplineSet
Validated: 1
EndChar

StartChar: h
Encoding: 359 104 103
Width: 360
VWidth: 799
Flags: HW
HStem: 0 21G<25 113.552 246.382 334.935> 371 73<118.977 240.957> 602 20G<25 113.552>
VStem: 25 89<0 366.005 444.339 622.066> 246 89<0 365.729>
LayerCount: 2
Fore
SplineSet
246 444 m 2
 290 444 335 399 335 355 c 0
 335 237 335 118 335 0 c 1
 246 0 l 1
 246 109 246 218 246 327 c 0
 246 354 228 371 202 371 c 2
 158 371 l 2
 132 371 114 354 114 327 c 0
 114 218 114 109 114 0 c 1
 25 0 l 1
 25 207 25 415 25 622 c 1
 114 622 l 1
 114 444 l 1
 246 444 l 2
EndSplineSet
Validated: 1
EndChar

StartChar: u
Encoding: 400 117 144
Width: 360
VWidth: 799
Flags: HW
HStem: 0 73<118.978 240.958> 424 20G<25 113.553 246.383 334.935>
VStem: 25 89<78.6099 444.339> 246 89<78.334 444.339>
AnchorPoint: "top" 177 481 basechar 0
LayerCount: 2
Fore
SplineSet
114 0 m 2
 70 0 25 45 25 89 c 0
 25 207 25 326 25 444 c 1
 114 444 l 1
 114 335 114 226 114 117 c 0
 114 90 132 73 158 73 c 2
 202 73 l 2
 228 73 246 90 246 117 c 0
 246 226 246 335 246 444 c 1
 335 444 l 1
 335 0 l 1
 114 0 l 2
EndSplineSet
Validated: 1
EndChar

StartChar: dotlessi
Encoding: 402 305 146
Width: 139
VWidth: 799
Flags: HW
HStem: 0 21G<25 113.552> 424 20G<25 113.552>
VStem: 25 89<0 444.339>
LayerCount: 2
Fore
SplineSet
114 0 m 1,4,-1
25 444 m 1
 114 444 l 1
 114 0 l 1
 25 0 l 1
 25 444 l 1
EndSplineSet
Validated: 1
EndChar

